<?xml version="1.0" standalone="no"?>
<!DOCTYPE svg PUBLIC "-//W3C//DTD SVG 20010904//EN"
 "http://www.w3.org/TR/2001/REC-SVG-20010904/DTD/svg10.dtd">
<svg version="1.0" xmlns="http://www.w3.org/2000/svg"
 width="400.000000pt" height="400.000000pt" viewBox="0 0 400.000000 400.000000"
 preserveAspectRatio="xMidYMid meet">
<metadata>
Created by potrace 1.11, written by Peter Selinger 2001-2013
</metadata>
<g transform="translate(0.000000,400.000000) scale(0.100000,-0.100000)"
fill="#000000" stroke="none">
<path d="M1747 3760 c-228 -27 -472 -121 -680 -262 -120 -81 -314 -275 -394
-393 -119 -176 -196 -358 -244 -575 -21 -92 -24 -131 -23 -310 0 -173 3 -221
22 -307 100 -463 392 -849 803 -1062 235 -122 488 -181 779 -181 312 0 587
-101 779 -286 l75 -73 76 62 c171 140 410 348 410 356 0 14 -65 67 -127 104
-83 48 -174 83 -283 107 -52 12 -96 22 -97 24 -2 1 18 18 44 36 166 120 347
343 448 555 311 651 129 1433 -438 1883 -316 251 -740 369 -1150 322z m396
-404 c252 -48 459 -163 632 -348 133 -143 224 -310 276 -504 30 -113 38 -365
14 -489 -85 -459 -428 -817 -873 -914 -85 -19 -252 -38 -242 -28 3 3 47 19 99
36 279 93 516 296 654 560 58 110 70 155 20 72 -21 -35 -67 -95 -102 -133
-116 -126 -234 -202 -401 -260 -93 -32 -98 -33 -270 -33 -197 0 -242 9 -388
76 -266 122 -455 360 -514 649 -28 133 -21 308 16 434 92 309 320 537 632 632
80 25 105 27 244 28 133 1 166 -3 234 -22 227 -65 417 -204 536 -389 28 -43
50 -73 50 -67 0 20 -90 186 -137 253 -25 36 -85 104 -132 152 -133 132 -274
220 -449 279 l-87 30 57 0 c31 0 90 -6 131 -14z"/>
</g>
</svg>
